<?xml version="1.0" encoding="UTF-8"?>
<svg width="120" height="24" viewBox="0 0 120 24" fill="none" xmlns="http://www.w3.org/2000/svg">
  <!-- Visa -->
  <g transform="translate(0, 0)">
    <rect width="36" height="24" rx="4" fill="#F9F9F9"/>
    <path d="M14.2 15.6H12.1L13.5 8.4H15.6L14.2 15.6Z" fill="#00579F"/>
    <path d="M22.2 8.6C21.8 8.4 21.1 8.3 20.3 8.3C18.1 8.3 16.5 9.5 16.5 11.1C16.5 12.4 17.6 13 18.5 13.4C19.3 13.8 19.6 14 19.6 14.4C19.6 15 18.9 15.2 18.3 15.2C17.4 15.2 16.9 15.1 16.2 14.8L15.9 14.6L15.6 16.4C16.1 16.6 17 16.8 18 16.8C20.3 16.8 21.9 15.6 21.9 13.9C21.9 12.9 21.2 12.1 20 11.6C19.2 11.2 18.8 11 18.8 10.6C18.8 10.3 19.2 9.9 20 9.9C20.7 9.9 21.2 10 21.6 10.2L21.8 10.3L22.2 8.6Z" fill="#00579F"/>
    <path d="M24.5 13.2C24.7 12.7 25.5 10.5 25.5 10.5C25.5 10.5 25.7 10 25.8 9.7L25.9 10.4C25.9 10.4 26.4 12.8 26.5 13.2H24.5ZM27.5 8.4H25.9C25.4 8.4 25 8.6 24.8 9.1L21.5 15.6H23.8C23.8 15.6 24.2 14.5 24.3 14.3C24.5 14.3 26.7 14.3 27 14.3C27.1 14.6 27.3 15.6 27.3 15.6H29.3L27.5 8.4Z" fill="#00579F"/>
    <path d="M10.8 8.4L8.7 13.3L8.5 12.2C8.1 10.9 6.9 9.5 5.5 8.8L7.4 15.6H9.8L13.2 8.4H10.8Z" fill="#00579F"/>
    <path d="M7.1 9.2H3.9L3.8 9.4C6.3 10 8 11.5 8.5 13.3L7.8 9.8C7.7 9.4 7.5 9.2 7.1 9.2Z" fill="#FAA61A"/>
  </g>
  
  <!-- Mastercard -->
  <g transform="translate(42, 0)">
    <rect width="36" height="24" rx="4" fill="#F9F9F9"/>
    <path d="M22 16C25.3 16 28 13.3 28 10C28 6.7 25.3 4 22 4C20.8 4 19.7 4.3 18.7 4.9C19.5 5.7 20.1 6.8 20.5 7.9C20.8 8.9 21 10 21 11C21 12 20.8 13.1 20.5 14.1C20.1 15.2 19.5 16.3 18.7 17.1C19.7 17.7 20.8 18 22 18V16Z" fill="#FF5F00"/>
    <path d="M14 10C14 12.3 15 14.3 16.5 15.7C17.4 16.5 18.6 17.1 19.8 17.4C21.2 17.8 22.6 17.8 24 17.4C25.2 17.1 26.4 16.5 27.3 15.7C28.8 14.3 29.8 12.3 29.8 10C29.8 7.7 28.8 5.7 27.3 4.3C26.4 3.5 25.2 2.9 24 2.6C22.6 2.2 21.2 2.2 19.8 2.6C18.6 2.9 17.4 3.5 16.5 4.3C15 5.7 14 7.7 14 10Z" fill="#FF5F00"/>
    <path d="M14 10C14 12.3 15 14.3 16.5 15.7C17.4 16.5 18.6 17.1 19.8 17.4C21.2 17.8 22.6 17.8 24 17.4C25.2 17.1 26.4 16.5 27.3 15.7C28.8 14.3 29.8 12.3 29.8 10H14Z" fill="#EB001B"/>
    <path d="M29.8 10C29.8 7.7 28.8 5.7 27.3 4.3C26.4 3.5 25.2 2.9 24 2.6C22.6 2.2 21.2 2.2 19.8 2.6C18.6 2.9 17.4 3.5 16.5 4.3C15 5.7 14 7.7 14 10H29.8Z" fill="#F79E1B"/>
  </g>
  
  <!-- American Express -->
  <g transform="translate(84, 0)">
    <rect width="36" height="24" rx="4" fill="#F9F9F9"/>
    <rect x="5" y="5" width="26" height="14" rx="2" fill="#1F72CD"/>
    <path d="M9 12L10.5 9H12.2L13.7 12L12.2 15H10.5L9 12Z" fill="white"/>
    <path d="M13.7 12L15.2 9H16.9L18.4 12L16.9 15H15.2L13.7 12Z" fill="white"/>
    <path d="M18.4 12L19.9 9H21.6L23.1 12L21.6 15H19.9L18.4 12Z" fill="white"/>
    <path d="M23.1 12L24.6 9H26.3L27.8 12L26.3 15H24.6L23.1 12Z" fill="white"/>
  </g>
</svg>
