<?xml version="1.0" encoding="UTF-8"?>
<svg width="48" height="32" viewBox="0 0 48 32" fill="none" xmlns="http://www.w3.org/2000/svg">
  <rect width="48" height="32" rx="4" fill="white"/>
  <path d="M30.0002 8H18.0002V24H30.0002V8Z" fill="#FF5F00"/>
  <path d="M19.0002 16C19.0002 12.68 20.5002 9.72 22.8002 8C20.8002 6.36 18.2002 5.36 15.4002 5.36C8.60019 5.36 3.00019 10.16 3.00019 16C3.00019 21.84 8.60019 26.64 15.4002 26.64C18.2002 26.64 20.8002 25.64 22.8002 24C20.5002 22.28 19.0002 19.32 19.0002 16Z" fill="#EB001B"/>
  <path d="M45.0002 16C45.0002 21.84 39.4002 26.64 32.6002 26.64C29.8002 26.64 27.2002 25.64 25.2002 24C27.5002 22.28 29.0002 19.32 29.0002 16C29.0002 12.68 27.5002 9.72 25.2002 8C27.2002 6.36 29.8002 5.36 32.6002 5.36C39.4002 5.36 45.0002 10.16 45.0002 16Z" fill="#F79E1B"/>
</svg>
